# xmcd CD database file
# Copyright (C) 1997 Ti Kan
# 
# Track frame offsets:
#     187
#     21680
#     40870
#     62095
#     73412
#     92565
#     112682
#     123587
#     137647
#     165480
#     181515
#     204162
# 
# Disc length: 2945 seconds
# 
# Revision: 1
# Processed by: cddbd v1.4b41PL1 Copyright (c) Steve Scherf et al.
# Submitted via: DiscPlay 4.0.4
# 
DISCID=9f0b7f0c
DTITLE=Gal Costa - Gal Costa - Vaca Profana
DYEAR=1900
DGENRE=
TTITLE0=Vaca Profana
TTITLE1=Nada Mais (Lately)
TTITLE2=Ultimo Blues
TTITLE3=Atraz Da Luminosidade
TTITLE4=Topazio
TTITLE5=O Revolver Do Meu Sonho
TTITLE6=Onde Esta O Dinheiro
TTITLE7=Chuva De Prata
TTITLE8=Um Dia De Domingo
TTITLE9=Ave Nossa
TTITLE10=De Volta Ao Comeco
TTITLE11=Musa De Qualquer Estacao
EXTD=
EXTT0=
EXTT1=
EXTT2=
EXTT3=
EXTT4=
EXTT5=
EXTT6=
EXTT7=
EXTT8=
EXTT9=
EXTT10=
EXTT11=
PLAYORDER=
